<svg width="17" height="18" viewBox="0 0 17 18" fill="none" xmlns="http://www.w3.org/2000/svg">
<g clip-path="url(#clip0_388_5032)">
<path d="M17 8.50254V9.4984C16.9873 9.54562 16.9778 9.59364 16.9715 9.64214C16.8892 10.8274 16.5749 11.9485 16.001 12.9888C14.6783 15.3821 12.6706 16.8483 9.98065 17.3652C9.65688 17.4278 9.3261 17.4558 8.9982 17.4999H8.00216C7.96021 17.4874 7.91738 17.4782 7.87404 17.4723C6.68809 17.3899 5.56022 17.0864 4.52462 16.5061C1.73214 14.941 0.208819 12.5523 0.0152108 9.35466C-0.0921919 7.70673 0.321235 6.06673 1.19704 4.66656C2.78874 2.08713 5.11616 0.692189 8.14303 0.51427C9.65512 0.420314 11.1624 0.762081 12.486 1.49901C14.8831 2.81693 16.3491 4.82841 16.8657 7.52028C16.9279 7.8444 16.9559 8.17512 17 8.50254ZM10.4115 13.0811C10.3032 13.1169 10.2233 13.1581 10.1393 13.1684C9.86779 13.2014 9.59385 13.2508 9.32239 13.2417C9.0295 13.2335 8.88451 13.0897 8.85568 12.7998C8.83347 12.5913 8.84529 12.3806 8.89068 12.1758C9.02992 11.5848 9.19181 10.9992 9.35164 10.4135C9.49623 9.88101 9.66841 9.35549 9.68571 8.79537C9.70178 8.29126 9.55348 7.8687 9.11931 7.58082C8.69461 7.29952 8.21636 7.26822 7.73069 7.323C7.18158 7.38478 6.67697 7.60553 6.16782 7.80363C6.14658 7.81305 6.12745 7.82666 6.1116 7.84364C6.09574 7.86063 6.08348 7.88064 6.07555 7.90248C6.02859 8.06475 5.99316 8.23196 5.94744 8.41729C6.01623 8.39793 6.06318 8.38764 6.10809 8.37199C6.42486 8.25832 6.74617 8.19489 7.08355 8.26696C7.31999 8.31762 7.45429 8.42223 7.46582 8.65864C7.479 8.92552 7.47488 9.2031 7.41515 9.46175C7.28128 10.042 7.11238 10.6149 6.95091 11.1886C6.80385 11.7105 6.65555 12.231 6.64196 12.7784C6.62754 13.3455 6.92825 13.8195 7.44357 14.0382C7.87449 14.2233 8.3535 14.2651 8.80995 14.1573C9.28573 14.0465 9.74257 13.8546 10.2064 13.6948C10.2236 13.6878 10.2392 13.6774 10.2521 13.6641C10.2651 13.6509 10.2752 13.6351 10.2818 13.6177C10.3275 13.4485 10.365 13.278 10.4115 13.0811ZM9.25236 3.7576C9.10201 3.78808 8.94671 3.80455 8.8013 3.85109C8.04376 4.09408 7.71174 4.97462 8.14756 5.61917C8.46557 6.08992 8.93518 6.25054 9.49128 6.17929C10.1446 6.09692 10.6253 5.47008 10.5363 4.82018C10.4544 4.22341 9.9028 3.77325 9.25236 3.7576Z" fill="#6A7580"/>
</g>
<defs>
<clipPath id="clip0_388_5032">
<rect width="17" height="17" fill="white" transform="translate(0 0.5)"/>
</clipPath>
</defs>
</svg>
