<svg width="19" height="19" viewBox="0 0 19 19" fill="none" xmlns="http://www.w3.org/2000/svg">
<path d="M9.50787 19C4.27834 19.0108 0.00790452 14.7428 1.08979e-05 9.50197C-0.00788273 4.26114 4.2734 -0.00492873 9.50392 4.27386e-06C12.0193 0.00520883 14.4303 1.00603 16.2097 2.78365C17.9892 4.56128 18.9924 6.97108 18.9999 9.48618C19.0177 14.7112 14.7482 18.9901 9.50787 19ZM8.46492 10.8112C8.44157 10.7926 8.4195 10.7725 8.39881 10.751C7.90546 10.1018 7.41211 9.45362 6.91876 8.80148C6.81775 8.65334 6.67177 8.54161 6.50237 8.48281C6.13828 8.36935 5.59755 8.54693 5.37949 8.84785C5.26733 9.01603 5.21091 9.21521 5.21817 9.41723C5.22543 9.61924 5.29602 9.81386 5.41996 9.97356C6.18762 10.9753 6.95955 11.9734 7.73575 12.9679C7.8124 13.0687 7.91135 13.1503 8.02485 13.2065C8.13835 13.2626 8.2633 13.2917 8.38993 13.2915C8.77375 13.3033 9.05891 13.1159 9.27796 12.8288C9.89761 12.0316 10.5094 11.2285 11.1231 10.4274C11.9223 9.38489 12.7209 8.34172 13.5188 7.2979C13.9382 6.74639 13.8533 6.14357 13.3284 5.84167C13.1154 5.72399 12.867 5.68714 12.629 5.73789C12.391 5.78864 12.1793 5.92359 12.0328 6.11792C11.0836 7.36301 10.1357 8.60942 9.18916 9.85714C8.95038 10.1788 8.70863 10.4955 8.46492 10.8151V10.8112Z" fill="white"/>
</svg>
