<svg width="16" height="16" viewBox="0 0 16 16" fill="none" xmlns="http://www.w3.org/2000/svg">
<path d="M0 8.21932V7.78099C0.0939515 7.31386 0.395849 6.98667 0.720295 6.66325C2.70372 4.69118 4.68139 2.7141 6.65333 0.732012C6.98028 0.403577 7.3088 0.0948672 7.78075 0H8.21919C8.69333 0.0939279 9.02028 0.404517 9.34661 0.732012C11.3785 2.77234 13.4141 4.80901 15.4535 6.84202C15.5195 6.9084 15.5872 6.97384 15.6476 7.04522C16.3789 7.90592 15.9116 9.23437 14.8021 9.44164C14.6361 9.47295 14.4645 9.47295 14.2847 9.4861V9.67834C14.2847 11.1881 14.2847 12.6979 14.2847 14.2079C14.2847 15.257 13.5428 15.9972 12.4956 15.9991C11.6986 16.0003 10.9018 16.0003 10.1051 15.9991C9.71145 15.9991 9.53733 15.8228 9.53702 15.4245C9.53702 14.2271 9.53702 13.0296 9.53702 11.8321C9.53702 11.2998 9.21508 10.9783 8.68049 10.9764C8.23798 10.9764 7.79484 10.9883 7.35265 10.973C6.80992 10.9539 6.44883 11.3409 6.45697 11.8615C6.47545 13.0535 6.46324 14.2461 6.46261 15.4383C6.46261 15.8218 6.28285 15.9991 5.8964 15.9991H3.53727C2.44744 15.9991 1.71587 15.2683 1.71524 14.1784C1.71524 12.6737 1.71524 11.169 1.71524 9.66425V9.49048C1.69911 9.48327 1.68233 9.47761 1.66513 9.47357C1.58715 9.47169 1.50855 9.47357 1.43088 9.4695C0.858402 9.43976 0.432176 9.17175 0.163161 8.66767C0.0895659 8.5296 0.0544919 8.36961 0 8.21932Z" fill="#6A7580"/>
</svg>
