<svg width="18" height="18" viewBox="0 0 18 18" fill="none" xmlns="http://www.w3.org/2000/svg">
<path d="M9.56873 0C9.91724 0.29248 10.2629 0.588728 10.6152 0.876027C13.0408 2.85415 15.4671 4.83228 17.894 6.8104C17.925 6.83584 17.9531 6.86457 18 6.9079L9.54715 13.829V9.54304C9.13016 9.59532 8.73428 9.62123 8.34778 9.69705C5.21496 10.3093 2.86827 12.0129 1.39122 14.852C0.911375 15.7779 0.555362 16.7632 0.140717 17.7202C0.0994397 17.8144 0.0469055 17.9086 0 18V13.8083C0.0128968 13.7576 0.0226099 13.7061 0.0290816 13.6542C0.101785 12.4528 0.370554 11.2951 0.887922 10.2104C2.42126 6.99597 4.94056 5.0494 8.44534 4.39945C8.80089 4.33351 9.16347 4.30525 9.53402 4.25815V0H9.56873Z" fill="white"/>
</svg>
